<?xml version="1.0" standalone="no"?>
<!DOCTYPE svg PUBLIC "-//W3C//DTD SVG 20010904//EN"
 "http://www.w3.org/TR/2001/REC-SVG-20010904/DTD/svg10.dtd">
<svg version="1.0" xmlns="http://www.w3.org/2000/svg"
 width="208.000000pt" height="224.000000pt" viewBox="0 0 208.000000 224.000000"
 preserveAspectRatio="xMidYMid meet">

<g transform="translate(0.000000,224.000000) scale(0.100000,-0.100000)"
fill="#000000" stroke="none">
<path d="M1130 1997 l-45 -11 57 -7 c65 -9 138 -44 185 -87 73 -68 138 -210
171 -371 l18 -92 48 61 c26 33 59 68 72 77 13 8 24 20 24 25 0 21 -165 230
-231 293 -107 100 -202 136 -299 112z"/>
<path d="M1048 1915 c-18 -40 0 -79 37 -83 31 -3 145 59 145 79 0 16 -49 29
-111 29 -54 0 -60 -2 -71 -25z"/>
<path d="M964 1583 c-33 -35 -54 -112 -54 -192 1 -83 23 -130 71 -153 69 -35
87 -64 99 -163 5 -50 10 -99 10 -110 0 -11 21 18 48 64 26 48 78 118 120 162
56 59 68 78 56 83 -32 12 -48 4 -115 -59 -38 -36 -78 -65 -88 -65 -27 0 -66
50 -90 115 -28 74 -27 80 10 53 46 -34 93 -30 159 15 30 20 61 37 68 37 19 0
7 53 -23 106 -27 47 -94 110 -131 124 -14 6 -45 10 -70 10 -36 0 -50 -5 -70
-27z"/>
<path d="M1654 1518 c-36 -39 -94 -135 -125 -210 -59 -137 -70 -202 -79 -463
-9 -264 -18 -314 -75 -430 -54 -112 -151 -214 -293 -310 -40 -26 -72 -49 -72
-50 0 -2 31 3 68 10 107 21 221 69 287 123 120 96 143 163 156 452 11 253 18
290 69 395 48 99 66 176 81 347 13 156 12 168 -17 136z"/>
<path d="M660 1227 c-23 -12 -44 -62 -65 -156 l-7 -33 52 28 c102 57 153 127
118 162 -16 16 -66 15 -98 -1z"/>
<path d="M551 1174 c-81 -73 -139 -236 -148 -416 -5 -104 -5 -108 15 -108 29
0 76 43 122 110 l39 57 -16 44 c-20 58 -12 191 17 278 12 35 19 65 16 68 -2 2
-23 -12 -45 -33z"/>
<path d="M1352 1153 c-22 -31 -74 -132 -92 -178 -31 -76 -42 -142 -50 -290 -5
-104 -16 -188 -29 -240 -27 -104 -99 -246 -156 -312 -52 -59 -56 -71 -17 -46
146 92 257 257 303 448 16 70 22 130 24 275 3 167 13 248 41 348 9 30 0 28
-24 -5z"/>
<path d="M835 863 c-43 -16 -56 -27 -91 -80 -72 -111 -126 -153 -237 -183
l-60 -17 44 -11 c81 -20 117 -23 186 -12 84 13 209 71 284 133 46 37 60 56 78
107 13 34 20 64 17 68 -4 3 -43 7 -89 9 -60 2 -95 -1 -132 -14z"/>
</g>
</svg>
